<mxfile host="app.diagrams.net" agent="Mozilla/5.0 (Windows NT 10.0; Win64; x64) AppleWebKit/537.36 (KHTML, like Gecko) Chrome/128.0.0.0 Safari/537.36" version="24.7.10">
  <diagram name="Page-1" id="F4AoScI9kG93jQlZJRK2">
    <mxGraphModel dx="1050" dy="565" grid="1" gridSize="10" guides="1" tooltips="1" connect="1" arrows="1" fold="1" page="1" pageScale="1" pageWidth="827" pageHeight="1169" math="0" shadow="0">
      <root>
        <mxCell id="0" />
        <mxCell id="1" parent="0" />
        <UserObject label="" link="https://cdn.discordapp.com/attachments/917072131953676336/1280960484094513243/image.png?ex=66d9faea&amp;is=66d8a96a&amp;hm=155da38c909e6710c7a3c6411abfa25d7c5ebacb428bd44158f6a50b6865319c&amp;" id="IbkcX1ktQZ32MarA_v1--1">
          <mxCell style="rounded=1;whiteSpace=wrap;html=1;strokeWidth=2;fillColor=#EDEDED;" vertex="1" parent="1">
            <mxGeometry x="200" y="170" width="340" height="200" as="geometry" />
          </mxCell>
        </UserObject>
        <mxCell id="IbkcX1ktQZ32MarA_v1--7" style="edgeStyle=orthogonalEdgeStyle;rounded=0;orthogonalLoop=1;jettySize=auto;html=1;exitX=1;exitY=0.5;exitDx=0;exitDy=0;exitPerimeter=0;entryX=0;entryY=0.5;entryDx=0;entryDy=0;" edge="1" parent="1" source="IbkcX1ktQZ32MarA_v1--2" target="IbkcX1ktQZ32MarA_v1--4">
          <mxGeometry relative="1" as="geometry" />
        </mxCell>
        <mxCell id="IbkcX1ktQZ32MarA_v1--2" value="" style="fontColor=#0066CC;verticalAlign=top;verticalLabelPosition=bottom;labelPosition=center;align=center;html=1;outlineConnect=0;fillColor=#CCCCCC;strokeColor=#6881B3;gradientColor=none;gradientDirection=north;strokeWidth=2;shape=mxgraph.networks.user_male;" vertex="1" parent="1">
          <mxGeometry x="225" y="225" width="30" height="80" as="geometry" />
        </mxCell>
        <mxCell id="IbkcX1ktQZ32MarA_v1--3" value="&lt;font size=&quot;1&quot; style=&quot;&quot;&gt;&lt;b style=&quot;font-size: 20px;&quot;&gt;Donor Use Case&lt;/b&gt;&lt;/font&gt;" style="text;html=1;align=center;verticalAlign=middle;whiteSpace=wrap;rounded=0;" vertex="1" parent="1">
          <mxGeometry x="201" y="176" width="190" height="30" as="geometry" />
        </mxCell>
        <mxCell id="IbkcX1ktQZ32MarA_v1--8" style="edgeStyle=orthogonalEdgeStyle;rounded=0;orthogonalLoop=1;jettySize=auto;html=1;exitX=1;exitY=0.5;exitDx=0;exitDy=0;entryX=0;entryY=0.5;entryDx=0;entryDy=0;" edge="1" parent="1" source="IbkcX1ktQZ32MarA_v1--4" target="IbkcX1ktQZ32MarA_v1--5">
          <mxGeometry relative="1" as="geometry" />
        </mxCell>
        <mxCell id="IbkcX1ktQZ32MarA_v1--4" value="&lt;font style=&quot;font-size: 14px;&quot;&gt;Request Form&lt;/font&gt;" style="ellipse;whiteSpace=wrap;html=1;" vertex="1" parent="1">
          <mxGeometry x="286" y="245" width="105" height="40" as="geometry" />
        </mxCell>
        <mxCell id="IbkcX1ktQZ32MarA_v1--5" value="&lt;font style=&quot;font-size: 14px;&quot;&gt;Submit Form&lt;/font&gt;" style="ellipse;whiteSpace=wrap;html=1;" vertex="1" parent="1">
          <mxGeometry x="420" y="245" width="100" height="40" as="geometry" />
        </mxCell>
        <mxCell id="IbkcX1ktQZ32MarA_v1--6" value="&lt;font style=&quot;font-size: 14px;&quot;&gt;Potential Donor&lt;/font&gt;" style="text;html=1;align=center;verticalAlign=middle;whiteSpace=wrap;rounded=0;" vertex="1" parent="1">
          <mxGeometry x="210" y="310" width="60" height="30" as="geometry" />
        </mxCell>
      </root>
    </mxGraphModel>
  </diagram>
</mxfile>
